<svg xmlns="http://www.w3.org/2000/svg" width="298.42" height="114.202" viewBox="0 0 298.42 114.202">
  <g id="Group_1649" data-name="Group 1649" transform="translate(-13.929 -18)">
    <path id="Path_1022" data-name="Path 1022" d="M221.8,81.2a1.379,1.379,0,0,1,.5-1.075V80.1l.111-.082a31.235,31.235,0,0,0,4.858-5.022c3.753-4.83,5.656-11.371,5.656-19.513,0-11.756-3.367-21.058-9.964-27.6C216.253,21.229,204.8,18,187.88,18H149.437V132.2H160.7V94.392a2.9,2.9,0,0,1,2.9-2.9h55.2a2.884,2.884,0,0,1,2.871,2.869V132.2h11.26V82.662h-9.66A1.49,1.49,0,0,1,221.8,81.2Zm-3.754-10.183a17.7,17.7,0,0,1-10.375,7.147c-4.914,1.38-11.565,2.07-19.79,2.07H163.43a2.715,2.715,0,0,1-2.733-2.7V33.4l-3.477-3.477a2.932,2.932,0,0,1,0-4.168,2.859,2.859,0,0,1,2.07-.855,2.909,2.909,0,0,1,2.07.855l3.477,3.505H187.88c7.894,0,14.353.719,19.208,2.1a18.619,18.619,0,0,1,10.654,7.479c2.595,3.753,3.919,9.355,3.919,16.642C221.662,62.241,220.447,67.484,218.046,71.017Z" transform="translate(79.427)" fill="#fff"/>
    <g id="Group_1549" data-name="Group 1549" transform="translate(13.929 18)">
      <path id="Path_1023" data-name="Path 1023" d="M66.779,18H52.4L13.929,132.2H25.795l9.273-27.681a3.027,3.027,0,0,1,2.871-2.07h43.3a3.025,3.025,0,0,1,2.871,2.07L93.385,132.2h11.866Zm8.8,73.5H43.6a2.915,2.915,0,0,1-2.758-3.865L56.65,40.576V32.213a2.939,2.939,0,1,1,5.878,0v8.445L78.342,87.63A2.916,2.916,0,0,1,75.582,91.5Z" transform="translate(-13.929 -18)" fill="#fff"/>
    </g>
    <path id="Path_1024" data-name="Path 1024" d="M166.589,43.584A36.8,36.8,0,0,0,150.03,24.348C142.5,20.152,132.422,18,120.058,18H81.613V132.2h38.445c18.353,0,31.682-4.8,39.631-14.213,7.837-9.3,11.812-23.735,11.812-42.888C171.5,62.434,169.872,51.809,166.589,43.584Zm-11.316,60.357c-3.2,6.513-7.617,10.984-13.165,13.33-5.8,2.428-13.219,3.67-22.051,3.67H97.068l-3.615,3.615a2.932,2.932,0,0,1-4.168,0,2.856,2.856,0,0,1-.855-2.07,2.906,2.906,0,0,1,.855-2.07l3.589-3.559V33.4l-3.505-3.477a2.982,2.982,0,0,1,0-4.168,2.9,2.9,0,0,1,2.07-.855,2.862,2.862,0,0,1,2.07.855l3.5,3.505h23.045c8.941,0,16.393,1.215,22.133,3.588,5.493,2.29,9.88,6.735,13.082,13.165,3.312,6.651,4.995,16.448,4.995,29.088C160.268,87.521,158.585,97.236,155.273,103.942Z" transform="translate(39.672)" fill="#fff"/>
  </g>
</svg>
